<svg width="20" height="20" viewBox="0 0 20 20" fill="none" xmlns="http://www.w3.org/2000/svg">
<path d="M3.33325 8.75C2.64159 8.75 2.08325 9.30833 2.08325 10C2.08325 10.6917 2.64159 11.25 3.33325 11.25C4.02492 11.25 4.58325 10.6917 4.58325 10C4.58325 9.30833 4.02492 8.75 3.33325 8.75ZM3.33325 3.75C2.64159 3.75 2.08325 4.30833 2.08325 5C2.08325 5.69167 2.64159 6.25 3.33325 6.25C4.02492 6.25 4.58325 5.69167 4.58325 5C4.58325 4.30833 4.02492 3.75 3.33325 3.75ZM3.33325 13.75C2.64159 13.75 2.08325 14.3167 2.08325 15C2.08325 15.6833 2.64992 16.25 3.33325 16.25C4.01659 16.25 4.58325 15.6833 4.58325 15C4.58325 14.3167 4.02492 13.75 3.33325 13.75ZM5.83325 15.8333H17.4999V14.1667H5.83325V15.8333ZM5.83325 10.8333H17.4999V9.16667H5.83325V10.8333ZM5.83325 4.16667V5.83333H17.4999V4.16667H5.83325Z" fill="white"/>
</svg>
