<svg width="681" height="532" viewBox="0 0 681 532" fill="none" xmlns="http://www.w3.org/2000/svg">
<g clip-path="url(#clip0)">
<g opacity="0.5">
<path opacity="0.5" d="M495.165 531.416H206.09V145.885H449.28L495.165 193.093V531.416Z" fill="url(#paint0_linear)"/>
</g>
<path d="M493.199 525.515H209.367V148.508H449.477L493.199 191.126V525.515Z" fill="#FCFCFC"/>
<g opacity="0.5">
<path opacity="0.5" d="M447.314 193.093V151.131H451.116L493.199 193.093H447.314Z" fill="url(#paint1_linear)"/>
</g>
<path d="M449.28 191.126V148.508L493.199 191.126H449.28Z" fill="#FAFAFA"/>
<g opacity="0.5">
<path opacity="0.5" d="M259.185 260.627C271.494 260.627 281.472 250.646 281.472 238.334C281.472 226.022 271.494 216.042 259.185 216.042C246.876 216.042 236.898 226.022 236.898 238.334C236.898 250.646 246.876 260.627 259.185 260.627Z" fill="url(#paint2_linear)"/>
</g>
<path d="M259.185 259.315C270.77 259.315 280.161 249.922 280.161 238.334C280.161 226.746 270.77 217.353 259.185 217.353C247.6 217.353 238.209 226.746 238.209 238.334C238.209 249.922 247.6 259.315 259.185 259.315Z" fill="#69F0AE"/>
<g opacity="0.5">
<path opacity="0.5" d="M259.185 351.108C271.494 351.108 281.472 341.128 281.472 328.816C281.472 316.504 271.494 306.523 259.185 306.523C246.876 306.523 236.898 316.504 236.898 328.816C236.898 341.128 246.876 351.108 259.185 351.108Z" fill="url(#paint3_linear)"/>
</g>
<path d="M259.185 349.797C270.77 349.797 280.161 340.403 280.161 328.816C280.161 317.228 270.77 307.835 259.185 307.835C247.6 307.835 238.209 317.228 238.209 328.816C238.209 340.403 247.6 349.797 259.185 349.797Z" fill="#E0E0E0"/>
<g opacity="0.5">
<path opacity="0.5" d="M259.185 441.59C271.494 441.59 281.472 431.609 281.472 419.298C281.472 406.986 271.494 397.005 259.185 397.005C246.876 397.005 236.898 406.986 236.898 419.298C236.898 431.609 246.876 441.59 259.185 441.59Z" fill="url(#paint4_linear)"/>
</g>
<path d="M259.185 440.279C270.77 440.279 280.161 430.885 280.161 419.298C280.161 407.71 270.77 398.316 259.185 398.316C247.6 398.316 238.209 407.71 238.209 419.298C238.209 430.885 247.6 440.279 259.185 440.279Z" fill="#E0E0E0"/>
<path d="M367.343 230.466H310.97V234.4H367.343V230.466Z" fill="#E0E0E0"/>
<path d="M404.051 236.367H310.97V240.301H404.051V236.367Z" fill="#E0E0E0"/>
<path d="M397.496 242.268H310.97V246.202H397.496V242.268Z" fill="#E0E0E0"/>
<path d="M367.343 320.948H310.97V324.882H367.343V320.948Z" fill="#E0E0E0"/>
<path d="M404.051 326.849H310.97V330.783H404.051V326.849Z" fill="#E0E0E0"/>
<path d="M397.496 332.75H310.97V336.684H397.496V332.75Z" fill="#E0E0E0"/>
<path d="M367.343 411.43H310.97V415.364H367.343V411.43Z" fill="#E0E0E0"/>
<path d="M404.051 417.331H310.97V421.265H404.051V417.331Z" fill="#E0E0E0"/>
<path d="M397.496 423.231H310.97V427.165H397.496V423.231Z" fill="#E0E0E0"/>
<path d="M251.319 237.023L259.185 244.235L270.329 227.843L274.262 231.122L259.185 250.792L248.042 238.334L251.319 237.023Z" fill="white"/>
<path d="M251.319 326.849L259.185 334.061L270.329 317.67L274.262 320.948L259.185 340.618L248.042 328.16L251.319 326.849Z" fill="white"/>
<path d="M251.319 416.675L259.185 423.887L270.329 407.496L274.262 410.774L259.185 430.444L248.042 417.986L251.319 416.675Z" fill="white"/>
<g opacity="0.5">
<path opacity="0.5" d="M576.12 182.93H615.384C630.264 182.93 642.325 194.995 642.325 209.878V255.381C642.325 270.265 630.264 282.329 615.384 282.329H576.12C561.24 282.329 549.179 270.265 549.179 255.381V209.878C549.244 194.995 561.306 182.93 576.12 182.93Z" fill="url(#paint5_linear)"/>
</g>
<path d="M578.545 185.16H612.566C627.446 185.16 639.507 197.224 639.507 212.107V251.972C639.507 266.855 627.446 278.92 612.566 278.92H578.545C563.665 278.92 551.604 266.855 551.604 251.972V212.107C551.604 197.224 563.665 185.16 578.545 185.16Z" fill="#6C63FF"/>
<path d="M600.57 250.464V247.12C611.779 244.235 618.531 232.761 615.647 221.549C612.762 210.337 601.291 203.584 590.082 206.469C578.873 209.354 572.121 220.828 575.005 232.04C576.906 239.449 582.675 245.219 590.082 247.12V250.464C581.233 252.89 575.005 260.889 575.005 270.068V279.248H615.647V270.068C615.581 260.889 609.419 252.89 600.57 250.464Z" fill="white"/>
<path d="M595.326 244.563C607.635 244.563 617.613 234.582 617.613 222.27C617.613 209.958 607.635 199.978 595.326 199.978C583.017 199.978 573.039 209.958 573.039 222.27C573.039 234.582 583.017 244.563 595.326 244.563Z" fill="white"/>
<path d="M617.547 223.778C617.547 223.778 616.302 247.776 626.135 250.398C626.135 250.398 605.814 261.545 601.881 237.285L617.547 223.778Z" fill="white"/>
<path d="M573.105 223.778C573.105 223.778 574.35 247.776 564.517 250.398C564.517 250.398 584.838 261.545 588.771 237.285L573.105 223.778Z" fill="white"/>
<g opacity="0.5">
<path opacity="0.5" d="M334.895 0H374.16C389.04 0 401.101 12.0642 401.101 26.9478V72.451C401.101 87.3345 389.04 99.3988 374.16 99.3988H334.895C320.016 99.3988 307.954 87.3345 307.954 72.451V26.9478C308.02 12.0642 320.081 0 334.895 0Z" fill="url(#paint6_linear)"/>
</g>
<path d="M337.583 2.81937H371.604C386.483 2.81937 398.545 14.8836 398.545 29.7672V69.6316C398.545 84.5152 386.483 96.5794 371.604 96.5794H337.583C322.703 96.5794 310.642 84.5152 310.642 69.6316V29.7672C310.642 14.8836 322.703 2.81937 337.583 2.81937Z" fill="#0F0F3F"/>
<path d="M384.058 39.93C383.403 34.3568 382.419 28.7837 380.256 23.6039C378.093 18.4242 374.684 13.6378 369.899 10.6218C368.195 9.50715 366.228 8.78592 364.196 8.65479C360.46 8.52366 356.986 11.0152 355.085 14.2279C354.429 15.3426 353.839 16.5228 353.381 17.703C349.71 18.3586 346.957 21.3747 346.695 25.0464C336.272 29.5049 331.421 41.5692 335.879 51.9287C338.37 57.7641 343.417 62.157 349.579 63.7306V67.2056C340.533 69.566 334.24 77.6963 334.174 87.0723V96.5794H375.143V87.0723C375.143 77.7618 368.785 69.566 359.739 67.2056V63.7306C368.785 61.3702 375.078 53.24 375.143 43.864C375.143 43.7984 375.143 43.7328 375.143 43.7328L377.437 48.847C379.601 53.7645 381.895 59.0098 381.043 64.2551C385.435 57.1084 385.107 48.1914 384.058 39.93Z" fill="white"/>
<g opacity="0.5">
<path opacity="0.5" d="M98.2596 323.898H137.524C152.404 323.898 164.465 335.963 164.465 350.846V396.349C164.465 411.233 152.404 423.297 137.524 423.297H98.2596C83.3798 423.297 71.3185 411.233 71.3185 396.349V350.846C71.3841 335.963 83.4453 323.898 98.2596 323.898Z" fill="url(#paint7_linear)"/>
</g>
<path d="M100.947 326.718H134.968C149.848 326.718 161.909 338.782 161.909 353.666V393.53C161.909 408.414 149.848 420.478 134.968 420.478H100.947C86.0673 420.478 74.0061 408.414 74.0061 393.53V353.666C74.0061 338.782 86.0673 326.718 100.947 326.718Z" fill="#69F0AE"/>
<path d="M100.882 365.795C99.5706 363.304 98.9807 360.484 99.1773 357.665C99.374 354.846 100.619 352.157 102.783 350.256C105.142 348.223 108.354 347.568 111.435 347.306C114.516 347.043 117.662 347.174 120.678 346.584C125.725 345.535 130.183 342.519 133.001 338.192C133.329 340.552 133.263 342.978 132.936 345.273C132.477 347.633 131.297 349.928 129.265 351.174C131.69 350.059 131.428 352.682 130.904 354.321C132.149 355.764 135.099 356.026 135.23 357.927C135.492 359.829 135.295 361.73 134.64 363.566C133.919 365.336 134.705 368.418 132.805 368.549" fill="white"/>
<path d="M100.882 365.795C99.5706 363.304 98.9807 360.484 99.1773 357.665C99.374 354.846 100.619 352.157 102.783 350.256C105.142 348.223 108.354 347.568 111.435 347.306C114.516 347.043 117.662 347.174 120.678 346.584C125.725 345.535 130.183 342.519 133.001 338.192C133.329 340.552 133.263 342.978 132.936 345.273C132.477 347.633 131.297 349.928 129.265 351.174C131.69 350.059 131.428 352.682 130.904 354.321C132.149 355.764 135.099 356.026 135.23 357.927C135.492 359.829 135.295 361.73 134.64 363.566C133.919 365.336 134.705 368.418 132.805 368.549" stroke="white" stroke-miterlimit="10"/>
<path d="M130.576 350.387C130.576 350.387 141.392 351.305 133.657 367.369L130.576 350.387Z" fill="white"/>
<path d="M122.71 392.087V388.744C133.919 385.859 140.67 374.385 137.786 363.173C134.902 351.961 123.431 345.207 112.222 348.092C101.013 350.977 94.261 362.451 97.1452 373.663C99.0462 381.072 104.815 386.842 112.222 388.744V392.087C103.372 394.513 97.1452 402.513 97.1452 411.692V420.871H137.786V411.692C137.721 402.513 131.559 394.513 122.71 392.087Z" fill="white"/>
<path d="M117.269 296.033V292.099" stroke="#CFD8DC" stroke-width="2" stroke-miterlimit="10"/>
<path d="M117.269 284.231V67.8613" stroke="#CFD8DC" stroke-width="2" stroke-miterlimit="10" stroke-dasharray="12 12"/>
<path d="M117.269 63.9273V59.9933H121.202" stroke="#CFD8DC" stroke-width="2" stroke-miterlimit="10"/>
<path d="M129.003 59.9933H280.554" stroke="#CFD8DC" stroke-width="2" stroke-miterlimit="10" stroke-dasharray="11.86 11.86"/>
<path d="M284.422 59.9933H288.355" stroke="#CFD8DC" stroke-width="2" stroke-miterlimit="10"/>
<path d="M427.321 59.9933H431.254" stroke="#CFD8DC" stroke-width="2" stroke-miterlimit="10"/>
<path d="M439.055 59.9933H606.338" stroke="#CFD8DC" stroke-width="2" stroke-miterlimit="10" stroke-dasharray="11.87 11.87"/>
<path d="M610.206 59.9933H614.139V63.9273" stroke="#CFD8DC" stroke-width="2" stroke-miterlimit="10"/>
<path d="M614.139 72.2542V151.524" stroke="#CFD8DC" stroke-width="2" stroke-miterlimit="10" stroke-dasharray="12.73 12.73"/>
<path d="M614.139 155.72V159.654" stroke="#CFD8DC" stroke-width="2" stroke-miterlimit="10"/>
<path opacity="0.3" d="M3.31345 354.405L0.00317383 360.139L5.73657 363.451L9.04685 357.716L3.31345 354.405Z" fill="#69F0AE"/>
<path opacity="0.3" d="M461.518 27.896L458.208 33.6308L463.941 36.9419L467.251 31.2071L461.518 27.896Z" fill="#69F0AE"/>
<path opacity="0.3" d="M146.208 450.795L142.898 456.53L148.631 459.841L151.942 454.106L146.208 450.795Z" fill="#4D8AF0"/>
<path opacity="0.3" d="M519.197 129.527L515.887 135.262L521.62 138.573L524.931 132.838L519.197 129.527Z" fill="#4D8AF0"/>
<path opacity="0.3" d="M545.311 441.59C547.483 441.59 549.244 439.829 549.244 437.656C549.244 435.483 547.483 433.722 545.311 433.722C543.139 433.722 541.378 435.483 541.378 437.656C541.378 439.829 543.139 441.59 545.311 441.59Z" fill="#69F0AE"/>
<path opacity="0.3" d="M171.676 176.046C173.848 176.046 175.609 174.285 175.609 172.112C175.609 169.939 173.848 168.178 171.676 168.178C169.504 168.178 167.743 169.939 167.743 172.112C167.743 174.285 169.504 176.046 171.676 176.046Z" fill="#69F0AE"/>
<path opacity="0.3" d="M572.842 353.731C575.014 353.731 576.775 351.97 576.775 349.797C576.775 347.624 575.014 345.863 572.842 345.863C570.67 345.863 568.909 347.624 568.909 349.797C568.909 351.97 570.67 353.731 572.842 353.731Z" fill="#FF5252"/>
<path opacity="0.3" d="M678.378 29.4394C678.575 30.0295 679.099 30.3573 679.689 30.3573C680.41 30.3573 681.065 30.9474 681.065 31.6686C681.065 32.1276 680.869 32.521 680.541 32.7832C680.082 33.1111 679.886 33.7012 680.017 34.2913C680.279 35.0125 679.886 35.7337 679.164 35.996C678.771 36.1271 678.312 36.0616 677.985 35.7993C677.526 35.4715 676.87 35.4715 676.411 35.7993C675.821 36.2583 674.969 36.1271 674.51 35.537C674.248 35.2092 674.183 34.7502 674.314 34.3568C674.51 33.8323 674.314 33.1766 673.789 32.8488C673.199 32.3898 673.068 31.603 673.462 30.9474C673.724 30.6195 674.117 30.4229 674.576 30.4229C675.166 30.4229 675.69 30.0295 675.887 29.5049C676.149 28.7837 676.936 28.4559 677.657 28.7837C677.919 28.8493 678.247 29.1115 678.378 29.4394Z" fill="#FF5252"/>
<path opacity="0.3" d="M176.92 335.635C177.116 336.225 177.641 336.553 178.231 336.553C178.952 336.553 179.607 337.143 179.607 337.864C179.607 338.323 179.411 338.716 179.083 338.979C178.624 339.306 178.427 339.897 178.558 340.487C178.821 341.208 178.427 341.929 177.706 342.191C177.313 342.322 176.854 342.257 176.526 341.995C176.068 341.667 175.412 341.667 174.953 341.995C174.363 342.454 173.511 342.322 173.052 341.732C172.79 341.405 172.725 340.946 172.856 340.552C173.052 340.028 172.856 339.372 172.331 339.044C171.741 338.585 171.61 337.798 172.003 337.143C172.266 336.815 172.659 336.618 173.118 336.618C173.708 336.618 174.232 336.225 174.429 335.7C174.691 334.979 175.478 334.651 176.199 334.979C176.461 335.045 176.789 335.307 176.92 335.635Z" fill="#FF5252"/>
<path opacity="0.3" d="M89.0826 49.7649C89.2793 50.355 89.8037 50.6829 90.3936 50.6829C91.1147 50.6829 91.7702 51.273 91.7702 51.9942C91.7702 52.4532 91.5735 52.8466 91.2458 53.1088C90.7869 53.4367 90.5903 54.0268 90.7214 54.6169C90.9836 55.3381 90.5903 56.0593 89.8692 56.3216C89.4759 56.4527 89.0171 56.3872 88.6893 56.1249C88.2305 55.7971 87.575 55.7971 87.1161 56.1249C86.5262 56.5839 85.674 56.4527 85.2152 55.8626C84.953 55.5348 84.8874 55.0758 85.0185 54.6824C85.2151 54.1579 85.0185 53.5022 84.4941 53.1744C83.9041 52.7154 83.773 51.9286 84.1663 51.273C84.4285 50.9451 84.8219 50.7484 85.2807 50.7484C85.8707 50.7484 86.3951 50.355 86.5917 49.8305C86.8539 49.1093 87.6405 48.7814 88.3616 49.1093C88.6238 49.1748 88.9515 49.4371 89.0826 49.7649Z" fill="#FF5252"/>
<path opacity="0.3" d="M282.455 5.83541C282.652 6.42551 283.176 6.75334 283.766 6.75334C284.487 6.75334 285.143 7.34344 285.143 8.06467C285.143 8.52363 284.946 8.91703 284.619 9.1793C284.16 9.50713 283.963 10.0972 284.094 10.6873C284.356 11.4086 283.963 12.1298 283.242 12.3921C282.849 12.5232 282.39 12.4576 282.062 12.1954C281.603 11.8675 280.948 11.8675 280.489 12.1954C279.899 12.6543 279.047 12.5232 278.588 11.9331C278.326 11.6053 278.26 11.1463 278.391 10.7529C278.588 10.2284 278.391 9.5727 277.867 9.24487C277.277 8.7859 277.146 7.9991 277.539 7.34344C277.801 7.01561 278.195 6.81891 278.654 6.81891C279.243 6.81891 279.768 6.42551 279.965 5.90098C280.227 5.17975 281.013 4.85191 281.734 5.17975C281.997 5.24531 282.324 5.50758 282.455 5.83541Z" fill="#4D8AF0"/>
<path opacity="0.3" d="M647.569 188.11C647.766 188.7 648.291 189.028 648.88 189.028C649.602 189.028 650.257 189.618 650.257 190.339C650.257 190.798 650.06 191.192 649.733 191.454C649.274 191.782 649.077 192.372 649.208 192.962C649.47 193.683 649.077 194.405 648.356 194.667C647.963 194.798 647.504 194.732 647.176 194.47C646.717 194.142 646.062 194.142 645.603 194.47C645.013 194.929 644.161 194.798 643.702 194.208C643.44 193.88 643.374 193.421 643.505 193.028C643.702 192.503 643.505 191.847 642.981 191.52C642.391 191.061 642.26 190.274 642.653 189.618C642.915 189.29 643.309 189.094 643.768 189.094C644.357 189.094 644.882 188.7 645.079 188.176C645.341 187.455 646.127 187.127 646.848 187.455C647.111 187.52 647.438 187.782 647.569 188.11Z" fill="#4D8AF0"/>
</g>
<defs>
<linearGradient id="paint0_linear" x1="350.635" y1="531.396" x2="350.635" y2="145.866" gradientUnits="userSpaceOnUse">
<stop stop-color="#808080" stop-opacity="0.25"/>
<stop offset="0.54" stop-color="#808080" stop-opacity="0.12"/>
<stop offset="1" stop-color="#808080" stop-opacity="0.1"/>
</linearGradient>
<linearGradient id="paint1_linear" x1="470.261" y1="193.074" x2="470.261" y2="151.111" gradientUnits="userSpaceOnUse">
<stop stop-color="#808080" stop-opacity="0.25"/>
<stop offset="0.54" stop-color="#808080" stop-opacity="0.12"/>
<stop offset="1" stop-color="#808080" stop-opacity="0.1"/>
</linearGradient>
<linearGradient id="paint2_linear" x1="259.196" y1="260.607" x2="259.196" y2="216.022" gradientUnits="userSpaceOnUse">
<stop stop-color="#808080" stop-opacity="0.25"/>
<stop offset="0.54" stop-color="#808080" stop-opacity="0.12"/>
<stop offset="1" stop-color="#808080" stop-opacity="0.1"/>
</linearGradient>
<linearGradient id="paint3_linear" x1="259.196" y1="351.089" x2="259.196" y2="306.504" gradientUnits="userSpaceOnUse">
<stop stop-color="#808080" stop-opacity="0.25"/>
<stop offset="0.54" stop-color="#808080" stop-opacity="0.12"/>
<stop offset="1" stop-color="#808080" stop-opacity="0.1"/>
</linearGradient>
<linearGradient id="paint4_linear" x1="259.196" y1="441.57" x2="259.196" y2="396.985" gradientUnits="userSpaceOnUse">
<stop stop-color="#808080" stop-opacity="0.25"/>
<stop offset="0.54" stop-color="#808080" stop-opacity="0.12"/>
<stop offset="1" stop-color="#808080" stop-opacity="0.1"/>
</linearGradient>
<linearGradient id="paint5_linear" x1="595.783" y1="282.27" x2="595.783" y2="182.93" gradientUnits="userSpaceOnUse">
<stop stop-color="#808080" stop-opacity="0.25"/>
<stop offset="0.54" stop-color="#808080" stop-opacity="0.12"/>
<stop offset="1" stop-color="#808080" stop-opacity="0.1"/>
</linearGradient>
<linearGradient id="paint6_linear" x1="354.559" y1="99.3398" x2="354.559" y2="0" gradientUnits="userSpaceOnUse">
<stop stop-color="#808080" stop-opacity="0.25"/>
<stop offset="0.54" stop-color="#808080" stop-opacity="0.12"/>
<stop offset="1" stop-color="#808080" stop-opacity="0.1"/>
</linearGradient>
<linearGradient id="paint7_linear" x1="117.923" y1="423.238" x2="117.923" y2="323.898" gradientUnits="userSpaceOnUse">
<stop stop-color="#808080" stop-opacity="0.25"/>
<stop offset="0.54" stop-color="#808080" stop-opacity="0.12"/>
<stop offset="1" stop-color="#808080" stop-opacity="0.1"/>
</linearGradient>
<clipPath id="clip0">
<rect width="681" height="531.416" fill="white"/>
</clipPath>
</defs>
</svg>
