<svg width="351" height="293" viewBox="0 0 351 293" fill="none" xmlns="http://www.w3.org/2000/svg">
<g clip-path="url(#clip0)">
<g opacity="0.7">
<path opacity="0.7" d="M221.785 132.229C221.816 122.978 219.602 113.859 215.335 105.653C213.31 101.799 211.462 99.4033 210.024 97.934C209.482 97.3586 208.774 96.9669 207.998 96.8138C207.223 96.6606 206.419 96.7536 205.699 97.0798C205.124 97.283 204.604 97.6185 204.182 98.0593C202.258 100.053 200.52 102.687 199.003 105.493C194.514 113.891 192.184 123.275 192.223 132.798V138.516H188.558V72.0753C188.558 58.1493 185.444 44.4094 179.343 32.2109C176.452 26.4362 173.816 22.8485 171.786 20.6426C171.294 20.0819 170.688 19.6326 170.009 19.3248C169.33 19.017 168.593 18.8578 167.848 18.8578C167.102 18.8578 166.365 19.017 165.686 19.3248C165.007 19.6326 164.402 20.0819 163.91 20.6426C161.163 23.6306 158.686 27.579 156.519 31.7781C150.104 44.2272 146.845 58.3544 146.845 72.6941V138.516H143.677V132.525C143.716 123.001 141.387 113.617 136.898 105.22C135.38 102.418 133.642 99.783 131.719 97.7859C131.165 97.2024 130.441 96.81 129.65 96.6653C128.859 96.5206 128.042 96.6312 127.318 96.9811L127.451 97.0532C126.986 97.2587 126.566 97.5527 126.214 97.9188C124.791 99.3881 122.944 101.784 120.903 105.637C116.636 113.843 114.423 122.963 114.453 132.214V231.548H125.759L124.526 239.715V264.131H133.768V239.715L132.535 231.548H143.677V141.086H146.845V231.142H155.874L154.577 239.711V264.131H163.823V239.715L162.525 231.146H174.692L173.394 239.715V264.131H182.64V239.715L181.343 231.146H188.551V141.086H192.216V231.685H195.186V231.548H205.009L203.776 239.715V264.131H213.021V239.715L211.788 231.548H221.785V132.229Z" fill="url(#paint0_linear)"/>
</g>
<path d="M135.608 234.954H126.855L128.418 224.319H134.045L135.608 234.954Z" fill="#535461"/>
<g opacity="0.1">
<path opacity="0.1" d="M127.982 228.541H134.481L134.045 225.568H128.418L127.982 228.541Z" fill="black"/>
</g>
<path d="M210.635 234.954H201.882L203.446 224.319H209.072L210.635 234.954Z" fill="#535461"/>
<g opacity="0.1">
<path opacity="0.1" d="M203.009 228.541H209.508L209.072 225.568H203.446L203.009 228.541Z" fill="black"/>
</g>
<path d="M164.058 234.954H155.302L156.865 224.319H162.495L164.058 234.954Z" fill="#535461"/>
<g opacity="0.1">
<path opacity="0.1" d="M156.428 228.541H162.931L162.495 225.568H156.865L156.428 228.541Z" fill="black"/>
</g>
<path d="M181.874 234.954H173.121L174.684 224.319H180.311L181.874 234.954Z" fill="#535461"/>
<g opacity="0.1">
<path opacity="0.1" d="M174.248 228.541H180.751L180.311 225.568H174.684L174.248 228.541Z" fill="black"/>
</g>
<path d="M198.13 136.409H135.608V138.911H198.13V136.409Z" fill="#535461"/>
<path d="M207.797 96.8748C207.467 96.5098 207.064 96.2181 206.614 96.0184C206.164 95.8188 205.677 95.7157 205.185 95.7157C204.693 95.7157 204.206 95.8188 203.756 96.0184C203.307 96.2181 202.903 96.5098 202.573 96.8748C200.752 98.8148 199.109 101.381 197.671 104.111C193.416 112.32 191.215 121.44 191.256 130.687V227.004H218.925V130.289C218.959 121.295 216.865 112.42 212.813 104.392C210.893 100.641 209.144 98.3061 207.797 96.8748Z" fill="#E0E0E0"/>
<path d="M128.456 96.8748C128.787 96.5098 129.19 96.2181 129.64 96.0184C130.089 95.8188 130.576 95.7157 131.068 95.7157C131.56 95.7157 132.047 95.8188 132.497 96.0184C132.947 96.2181 133.35 96.5098 133.68 96.8748C135.501 98.8148 137.144 101.381 138.582 104.111C142.837 112.32 145.038 121.44 144.997 130.687V227.004H117.321V130.289C117.286 121.295 119.381 112.42 123.433 104.392C125.349 100.641 127.098 98.3061 128.456 96.8748Z" fill="#E0E0E0"/>
<path d="M117.477 132.343L124.04 132.373V140.475H117.477V132.343Z" fill="#535461"/>
<path d="M138.423 132.343L144.986 132.373V140.475H138.423V132.343Z" fill="#535461"/>
<path d="M191.252 132.343L197.819 132.373V140.475H191.252V132.343Z" fill="#535461"/>
<path d="M212.198 132.343L218.765 132.373V140.475H212.198V132.343Z" fill="#535461"/>
<g opacity="0.1">
<path opacity="0.1" d="M138.571 103.986C137.137 101.256 135.49 98.6895 133.669 96.7495C133.154 96.1807 132.468 95.796 131.714 95.6541C130.961 95.5122 130.182 95.6209 129.496 95.9636C129.891 96.1609 130.248 96.427 130.55 96.7495C132.371 98.6895 134.014 101.256 135.452 103.986C139.707 112.195 141.908 121.314 141.868 130.562V226.871H144.994V130.573C145.034 121.321 142.83 112.198 138.571 103.986Z" fill="black"/>
</g>
<g opacity="0.1">
<path opacity="0.1" d="M200.16 104.252C201.594 101.522 203.241 98.9553 205.062 97.0152C205.403 96.6481 205.814 96.3536 206.272 96.1496C205.596 95.8532 204.843 95.7773 204.122 95.9327C203.4 96.0881 202.745 96.4668 202.25 97.0152C200.429 98.9553 198.787 101.522 197.349 104.252C193.094 112.461 190.892 121.58 190.933 130.828V227.136H193.748V130.843C193.704 121.591 195.904 112.466 200.16 104.252Z" fill="black"/>
</g>
<path d="M135.608 234.954H126.855V258.728H135.608V234.954Z" fill="url(#paint1_linear)"/>
<path d="M164.054 234.954H155.302V258.728H164.054V234.954Z" fill="url(#paint2_linear)"/>
<path d="M181.874 234.954H173.121V258.728H181.874V234.954Z" fill="url(#paint3_linear)"/>
<path d="M210.635 234.954H201.882V258.728H210.635V234.954Z" fill="url(#paint4_linear)"/>
<path d="M171.592 21.3602C171.135 20.8163 170.565 20.3791 169.921 20.0792C169.277 19.7792 168.575 19.6238 167.865 19.6238C167.155 19.6238 166.453 19.7792 165.809 20.0792C165.165 20.3791 164.595 20.8163 164.137 21.3602C161.539 24.2684 159.205 28.1143 157.142 32.2071C151.071 44.3335 147.983 58.0962 147.983 72.0525V226.609H187.473V71.4299C187.473 57.8684 184.526 44.4739 178.748 32.6247C176.012 27.0019 173.516 23.5091 171.592 21.3602Z" fill="#EEEEEE"/>
<path d="M173.584 38.5284H161.326C159.021 38.5284 157.153 40.3982 157.153 42.7047V43.8019C157.153 46.1084 159.021 47.9782 161.326 47.9782H173.584C175.889 47.9782 177.757 46.1084 177.757 43.8019V42.7047C177.757 40.3982 175.889 38.5284 173.584 38.5284Z" fill="#0F0F3F"/>
<g opacity="0.7">
<path opacity="0.7" d="M259.724 256.131C258.428 248.312 254.235 241.269 247.982 236.406C241.728 231.542 233.873 229.215 225.982 229.889C218.09 230.563 210.743 234.188 205.403 240.042C200.063 245.895 197.124 253.547 197.171 261.473C197.171 261.629 197.171 261.78 197.171 261.936C196.006 262.113 194.853 262.36 193.718 262.676C192.265 256.885 189.048 251.688 184.513 247.807C179.978 243.925 174.349 241.551 168.406 241.013C162.463 240.474 156.5 241.798 151.342 244.801C146.184 247.805 142.087 252.339 139.618 257.775C137.073 256.793 134.4 256.181 131.681 255.96C131.247 253.497 130.52 251.094 129.515 248.804C129.043 241.577 125.866 234.794 120.617 229.809C115.369 224.823 108.435 222 101.199 221.905C93.9631 221.809 86.957 224.446 81.5786 229.292C76.2002 234.137 72.8448 240.833 72.182 248.044C70.6923 251.201 69.7408 254.585 69.3669 258.056C62.7813 260.798 57.4474 265.889 54.399 272.342C51.3507 278.796 50.8049 286.152 52.8674 292.985H283.375C284.576 288.999 284.9 284.8 284.324 280.677C283.748 276.555 282.285 272.606 280.037 269.103C277.789 265.6 274.809 262.626 271.302 260.387C267.796 258.148 263.845 256.696 259.724 256.131Z" fill="url(#paint5_linear)"/>
</g>
<path d="M103.462 278.607C118.722 278.607 131.093 266.227 131.093 250.956C131.093 235.685 118.722 223.306 103.462 223.306C88.2022 223.306 75.8315 235.685 75.8315 250.956C75.8315 266.227 88.2022 278.607 103.462 278.607Z" fill="url(#paint6_linear)"/>
<path d="M103.326 291.603C120.036 291.603 133.582 278.047 133.582 261.325C133.582 244.603 120.036 231.047 103.326 231.047C86.6158 231.047 73.0697 244.603 73.0697 261.325C73.0697 278.047 86.6158 291.603 103.326 291.603Z" fill="url(#paint7_linear)"/>
<path d="M226.285 291.603C242.994 291.603 256.541 278.047 256.541 261.325C256.541 244.603 242.994 231.047 226.285 231.047C209.575 231.047 196.029 244.603 196.029 261.325C196.029 278.047 209.575 291.603 226.285 291.603Z" fill="url(#paint8_linear)"/>
<path d="M224.763 291.603C240.023 291.603 252.394 279.223 252.394 263.952C252.394 248.681 240.023 236.301 224.763 236.301C209.503 236.301 197.133 248.681 197.133 263.952C197.133 279.223 209.503 291.603 224.763 291.603Z" fill="url(#paint9_linear)"/>
<path d="M193.54 269.207C193.544 273.579 192.511 277.89 190.524 281.785C188.537 285.679 185.654 289.046 182.113 291.607H149.702C145.866 288.832 142.806 285.118 140.815 280.821C138.825 276.523 137.97 271.786 138.334 267.063C138.697 262.341 140.266 257.791 142.891 253.849C145.515 249.907 149.107 246.706 153.323 244.551C157.538 242.397 162.236 241.362 166.966 241.546C171.695 241.73 176.299 243.126 180.335 245.6C184.371 248.075 187.704 251.545 190.016 255.678C192.327 259.812 193.539 264.47 193.536 269.207H193.54Z" fill="url(#paint10_linear)"/>
<path d="M227.806 289.116C227.806 289.944 227.769 290.763 227.696 291.573C227.699 291.584 227.699 291.595 227.696 291.607H172.655C172.579 290.787 172.541 289.955 172.541 289.12C172.536 282.503 174.905 276.105 179.216 271.088C183.527 266.071 189.494 262.77 196.032 261.784C197.399 261.579 198.778 261.475 200.16 261.473C200.866 261.473 201.568 261.5 202.262 261.549C207.214 261.928 211.973 263.635 216.039 266.49C220.104 269.345 223.326 273.244 225.366 277.776C225.48 278.026 225.59 278.281 225.693 278.535C227.088 281.888 227.806 285.484 227.806 289.116Z" fill="url(#paint11_linear)"/>
<path d="M280.028 283.584C280.031 286.301 279.633 289.003 278.845 291.603H225.958C224.68 287.351 224.436 282.855 225.249 278.489C225.294 278.25 225.34 278.007 225.393 277.772C226.724 271.59 230.132 266.051 235.049 262.078C239.965 258.105 246.094 255.938 252.413 255.938C253.282 255.938 254.135 255.975 254.981 256.059C255.361 256.089 255.74 256.135 256.12 256.184C262.742 257.086 268.813 260.359 273.209 265.397C277.605 270.435 280.028 276.896 280.028 283.584Z" fill="url(#paint12_linear)"/>
<path d="M110.295 291.607C110.386 291.318 110.466 291.03 110.545 290.737C111.803 286.029 111.796 281.073 110.525 276.368C109.254 271.664 106.764 267.379 103.307 263.947C99.8505 260.515 95.5491 258.057 90.8383 256.823C86.1275 255.589 81.1745 255.621 76.4803 256.917C75.3811 257.219 74.3027 257.592 73.2517 258.033C66.9238 260.668 61.7988 265.56 58.8701 271.761C55.9415 277.962 55.418 285.03 57.401 291.595H110.295V291.607Z" fill="url(#paint13_linear)"/>
<g opacity="0.7">
<path opacity="0.7" d="M269.527 234.737C272.326 234.737 274.595 232.466 274.595 229.665C274.595 226.864 272.326 224.593 269.527 224.593C266.728 224.593 264.458 226.864 264.458 229.665C264.458 232.466 266.728 234.737 269.527 234.737Z" fill="url(#paint14_linear)"/>
</g>
<path d="M269.527 234.365C272.121 234.365 274.224 232.261 274.224 229.665C274.224 227.069 272.121 224.965 269.527 224.965C266.933 224.965 264.83 227.069 264.83 229.665C264.83 232.261 266.933 234.365 269.527 234.365Z" fill="url(#paint15_linear)"/>
<g opacity="0.7">
<path opacity="0.7" d="M292.738 284.139C295.791 284.139 298.265 281.662 298.265 278.607C298.265 275.552 295.791 273.075 292.738 273.075C289.685 273.075 287.21 275.552 287.21 278.607C287.21 281.662 289.685 284.139 292.738 284.139Z" fill="url(#paint16_linear)"/>
</g>
<path d="M292.738 283.862C295.638 283.862 297.988 281.509 297.988 278.607C297.988 275.705 295.638 273.353 292.738 273.353C289.838 273.353 287.487 275.705 287.487 278.607C287.487 281.509 289.838 283.862 292.738 283.862Z" fill="url(#paint17_linear)"/>
<g opacity="0.7">
<path opacity="0.7" d="M56.2136 253.162C59.5682 253.162 62.2876 250.441 62.2876 247.084C62.2876 243.727 59.5682 241.005 56.2136 241.005C52.8591 241.005 50.1396 243.727 50.1396 247.084C50.1396 250.441 52.8591 253.162 56.2136 253.162Z" fill="url(#paint18_linear)"/>
</g>
<path d="M56.2135 252.889C59.4172 252.889 62.0143 250.29 62.0143 247.084C62.0143 243.878 59.4172 241.279 56.2135 241.279C53.0098 241.279 50.4127 243.878 50.4127 247.084C50.4127 250.29 53.0098 252.889 56.2135 252.889Z" fill="url(#paint19_linear)"/>
<g opacity="0.4">
<path opacity="0.4" d="M285.04 7.25956C283.694 5.47918 282.007 3.98467 280.078 2.86308C277.865 1.59036 275.389 0.843479 272.841 0.680075C270.294 0.51667 267.743 0.941111 265.386 1.92064C263.029 2.90018 260.928 4.40861 259.245 6.32956C257.563 8.2505 256.343 10.5326 255.682 12.9997C255.021 15.4669 254.934 18.0531 255.43 20.5589C255.926 23.0647 256.99 25.423 258.541 27.4518C260.092 29.4807 262.088 31.1258 264.375 32.2604C266.662 33.3949 269.179 33.9885 271.731 33.9953C272.084 33.9953 272.437 33.9953 272.786 33.9611C275.789 33.7715 278.685 32.7715 281.166 31.0672C283.646 29.3628 285.619 27.0179 286.875 24.2815C288.131 21.545 288.623 18.5192 288.299 15.5255C287.974 12.5317 286.846 9.68185 285.032 7.27854L285.04 7.25956Z" fill="url(#paint20_linear)"/>
</g>
<path opacity="0.2" d="M287.487 17.3016C287.487 21.3087 285.962 25.1655 283.222 28.0874C280.482 31.0094 276.733 32.7771 272.737 33.031C272.406 33.0538 272.073 33.0651 271.739 33.0651C269.324 33.0637 266.942 32.5066 264.776 31.4368C262.611 30.3669 260.721 28.8131 259.251 26.8955C257.782 24.9778 256.773 22.7477 256.302 20.3774C255.831 18.0072 255.911 15.5604 256.536 13.2261C257.162 10.8919 258.315 8.73278 259.907 6.91571C261.499 5.09863 263.487 3.67227 265.718 2.7469C267.948 1.82153 270.362 1.42193 272.772 1.57902C275.181 1.7361 277.523 2.44565 279.615 3.6528C281.439 4.71316 283.035 6.12639 284.308 7.81009C286.375 10.5413 287.492 13.8751 287.487 17.3016Z" fill="#6C63FF"/>
<path opacity="0.05" d="M267.862 7.30513C267.048 7.65635 266.263 8.07015 265.513 8.54282C265.012 8.82068 264.583 9.21046 264.257 9.68181C264.098 9.9182 264.011 10.1955 264.006 10.4803C264 10.7652 264.077 11.0455 264.227 11.2878C264.606 11.8117 265.365 11.8952 265.999 11.9294C266.581 12.0532 267.186 12.0199 267.751 11.8332C268.316 11.6464 268.822 11.3127 269.216 10.8663L270.57 9.63625C271.041 9.21103 271.557 8.62255 271.352 8.02269C271.196 7.5633 270.68 7.3393 270.214 7.26337C269.05 7.0341 267.842 7.24658 266.826 7.85943" fill="#F55F44"/>
<path opacity="0.05" d="M262.205 24.3519C262.662 24.3519 263.032 23.9813 263.032 23.5242C263.032 23.0671 262.662 22.6966 262.205 22.6966C261.748 22.6966 261.378 23.0671 261.378 23.5242C261.378 23.9813 261.748 24.3519 262.205 24.3519Z" fill="#F55F44"/>
<path opacity="0.05" d="M279.061 21.3108C280.739 21.3108 282.1 19.9493 282.1 18.2697C282.1 16.5902 280.739 15.2287 279.061 15.2287C277.383 15.2287 276.022 16.5902 276.022 18.2697C276.022 19.9493 277.383 21.3108 279.061 21.3108Z" fill="#F55F44"/>
<path opacity="0.05" d="M284.312 7.80629C284.3 8.60091 284.06 9.37536 283.621 10.0376C283.182 10.6998 282.562 11.2219 281.835 11.5419C281.108 11.8619 280.305 11.9663 279.52 11.8426C278.736 11.719 278.003 11.3725 277.41 10.8444C276.816 10.3164 276.387 9.62884 276.173 8.86364C275.958 8.09843 275.968 7.28772 276.201 6.52788C276.433 5.76804 276.879 5.09102 277.485 4.57731C278.091 4.0636 278.831 3.73481 279.619 3.63002C281.445 4.69595 283.04 6.11574 284.312 7.80629Z" fill="#F55F44"/>
<path opacity="0.05" d="M284.615 26.3793C283.26 28.3085 281.489 29.908 279.433 31.0594C277.377 32.2108 275.088 32.8846 272.737 33.031C272.718 32.8145 272.706 32.5943 272.706 32.3741C272.707 30.9908 273.091 29.6348 273.817 28.4573C274.542 27.2798 275.58 26.3271 276.815 25.7054C278.05 25.0838 279.433 24.8176 280.811 24.9366C282.188 25.0556 283.505 25.5551 284.615 26.3793Z" fill="#F55F44"/>
<path opacity="0.25" d="M274.224 133.44C275.292 133.44 276.159 132.573 276.159 131.504C276.159 130.434 275.292 129.567 274.224 129.567C273.155 129.567 272.289 130.434 272.289 131.504C272.289 132.573 273.155 133.44 274.224 133.44Z" fill="#535461"/>
<path opacity="0.25" d="M16.2415 184.314C17.3101 184.314 18.1764 183.448 18.1764 182.378C18.1764 181.309 17.3101 180.442 16.2415 180.442C15.1729 180.442 14.3066 181.309 14.3066 182.378C14.3066 183.448 15.1729 184.314 16.2415 184.314Z" fill="#535461"/>
<path opacity="0.25" d="M348.963 195.325C350.031 195.325 350.898 194.458 350.898 193.388C350.898 192.319 350.031 191.452 348.963 191.452C347.894 191.452 347.028 192.319 347.028 193.388C347.028 194.458 347.894 195.325 348.963 195.325Z" fill="#535461"/>
<path opacity="0.25" d="M109.54 103.576C110.609 103.576 111.475 102.709 111.475 101.639C111.475 100.57 110.609 99.7032 109.54 99.7032C108.471 99.7032 107.605 100.57 107.605 101.639C107.605 102.709 108.471 103.576 109.54 103.576Z" fill="#535461"/>
<path opacity="0.25" d="M103.185 59.0567C104.254 59.0567 105.12 58.1898 105.12 57.1204C105.12 56.0511 104.254 55.1842 103.185 55.1842C102.117 55.1842 101.25 56.0511 101.25 57.1204C101.25 58.1898 102.117 59.0567 103.185 59.0567Z" fill="#535461"/>
<path opacity="0.25" d="M48.4741 147.263C49.5427 147.263 50.4089 146.396 50.4089 145.327C50.4089 144.258 49.5427 143.391 48.4741 143.391C47.4055 143.391 46.5392 144.258 46.5392 145.327C46.5392 146.396 47.4055 147.263 48.4741 147.263Z" fill="#535461"/>
<path opacity="0.25" d="M322.167 147.601H320.444V145.881H319.742V147.601H318.02V148.307H319.742V150.027H320.444V148.307H322.167V147.601Z" fill="#535461"/>
<path opacity="0.25" d="M351 87.9945H349.278V86.2746H348.576V87.9945H346.853V88.7006H348.576V90.4205H349.278V88.7006H351V87.9945Z" fill="#535461"/>
<path opacity="0.25" d="M228.219 54.6944H226.497V52.9707H225.795V54.6944H224.073V55.3968H225.795V57.1204H226.497V55.3968H228.219V54.6944Z" fill="#535461"/>
<path opacity="0.25" d="M303.376 137.924H301.653V136.204H300.951V137.924H299.233V138.63H300.951V140.35H301.653V138.63H303.376V137.924Z" fill="#535461"/>
<path opacity="0.25" d="M240.375 195.161H238.656V193.442H237.954V195.161H236.232V195.868H237.954V197.587H238.656V195.868H240.375V195.161Z" fill="#535461"/>
<path opacity="0.25" d="M64.0896 77.0906H62.3671V75.3708H61.6653V77.0906H59.9429V77.793H61.6653V79.5166H62.3671V77.793H64.0896V77.0906Z" fill="#535461"/>
<path opacity="0.25" d="M4.14669 99.4906H2.42427V97.7708H1.72241V99.4906H0V100.193H1.72241V101.917H2.42427V100.193H4.14669V99.4906Z" fill="#535461"/>
<path opacity="0.25" d="M87.8505 170.001H86.1281V168.278H85.4263V170.001H83.7076V170.704H85.4263V172.427H86.1281V170.704H87.8505V170.001Z" fill="#535461"/>
<path d="M292.738 283.862C295.638 283.862 297.988 281.509 297.988 278.607C297.988 275.705 295.638 273.353 292.738 273.353C289.838 273.353 287.487 275.705 287.487 278.607C287.487 281.509 289.838 283.862 292.738 283.862Z" fill="url(#paint21_linear)"/>
<g opacity="0.4">
<path opacity="0.4" d="M102.04 132.87C101.399 132.022 100.595 131.309 99.676 130.775C98.622 130.161 97.4407 129.798 96.2239 129.715C95.0071 129.632 93.7876 129.83 92.6599 130.295C91.5323 130.76 90.5269 131.479 89.7217 132.396C88.9166 133.313 88.3334 134.403 88.0175 135.581C87.7016 136.76 87.6614 137.996 87.9 139.193C88.1386 140.39 88.6497 141.516 89.3935 142.483C90.1373 143.45 91.0939 144.233 92.1889 144.77C93.284 145.308 94.488 145.585 95.7076 145.581C95.8746 145.581 96.0453 145.581 96.2084 145.581C97.638 145.49 99.0163 145.013 100.197 144.201C101.378 143.389 102.317 142.272 102.914 140.97C103.512 139.667 103.747 138.227 103.593 136.801C103.438 135.376 102.902 134.019 102.04 132.874V132.87Z" fill="url(#paint22_linear)"/>
</g>
<path opacity="0.2" d="M103.204 137.654C103.204 139.563 102.478 141.399 101.172 142.791C99.8672 144.182 98.0813 145.024 96.178 145.145C96.0225 145.145 95.8631 145.145 95.7038 145.145C94.5539 145.144 93.4197 144.878 92.3888 144.368C91.3579 143.858 90.4579 143.118 89.7584 142.205C89.0589 141.292 88.5786 140.23 88.3546 139.101C88.1306 137.972 88.169 136.807 88.4666 135.696C88.7643 134.584 89.3134 133.556 90.0714 132.691C90.8294 131.826 91.7761 131.146 92.8383 130.706C93.9005 130.265 95.0497 130.074 96.1971 130.149C97.3446 130.223 98.4596 130.561 99.4559 131.135C100.324 131.64 101.084 132.313 101.691 133.113C102.679 134.42 103.211 136.015 103.204 137.654Z" fill="#6C63FF"/>
<path opacity="0.1" d="M93.8562 132.893C93.462 133.059 93.0814 133.256 92.718 133.482C92.4799 133.612 92.2748 133.795 92.1186 134.017C92.0463 134.13 92.0079 134.262 92.0079 134.397C92.0079 134.531 92.0463 134.663 92.1186 134.776C92.2289 134.885 92.3612 134.968 92.5066 135.02C92.6519 135.073 92.8069 135.093 92.9608 135.08C93.2358 135.136 93.5208 135.119 93.7871 135.031C94.0534 134.942 94.2918 134.785 94.4784 134.575L95.1233 133.99C95.3471 133.785 95.5937 133.508 95.5027 133.231C95.4518 133.126 95.3748 133.036 95.2792 132.97C95.1835 132.903 95.0723 132.862 94.9564 132.851C94.4022 132.743 93.8276 132.844 93.344 133.136" fill="#F55F44"/>
<path opacity="0.1" d="M91.1626 141.01C91.3805 141.01 91.5572 140.834 91.5572 140.615C91.5572 140.397 91.3805 140.221 91.1626 140.221C90.9447 140.221 90.7681 140.397 90.7681 140.615C90.7681 140.834 90.9447 141.01 91.1626 141.01Z" fill="#F55F44"/>
<path opacity="0.1" d="M99.1904 139.564C99.9908 139.564 100.64 138.915 100.64 138.114C100.64 137.313 99.9908 136.663 99.1904 136.663C98.3899 136.663 97.7411 137.313 97.7411 138.114C97.7411 138.915 98.3899 139.564 99.1904 139.564Z" fill="#F55F44"/>
<path opacity="0.1" d="M101.691 133.148C101.686 133.526 101.572 133.895 101.364 134.21C101.156 134.526 100.862 134.775 100.516 134.928C100.17 135.081 99.7881 135.131 99.4146 135.073C99.0412 135.015 98.6923 134.851 98.4094 134.6C98.1266 134.349 97.9217 134.022 97.8191 133.658C97.7166 133.294 97.7207 132.908 97.8309 132.547C97.9412 132.185 98.1529 131.862 98.441 131.618C98.7291 131.373 99.0814 131.216 99.456 131.166C100.325 131.672 101.084 132.345 101.691 133.148Z" fill="#F55F44"/>
<path opacity="0.1" d="M101.839 141.978C101.194 142.898 100.35 143.66 99.3712 144.209C98.392 144.757 97.302 145.079 96.1819 145.149C96.1819 145.046 96.1819 144.94 96.1819 144.834C96.1798 144.172 96.3623 143.522 96.7088 142.958C97.0554 142.394 97.5522 141.939 98.1436 141.642C98.7349 141.345 99.3972 141.22 100.056 141.279C100.715 141.338 101.344 141.581 101.873 141.978H101.839Z" fill="#F55F44"/>
<g opacity="0.1">
<path opacity="0.1" d="M187.261 77.3374H148.184V78.856H187.261V77.3374Z" fill="black"/>
</g>
</g>
<defs>
<linearGradient id="paint0_linear" x1="168.121" y1="264.131" x2="168.121" y2="18.8696" gradientUnits="userSpaceOnUse">
<stop stop-color="#808080" stop-opacity="0.25"/>
<stop offset="0.54" stop-color="#808080" stop-opacity="0.12"/>
<stop offset="1" stop-color="#808080" stop-opacity="0.1"/>
</linearGradient>
<linearGradient id="paint1_linear" x1="131.23" y1="234.954" x2="131.23" y2="258.732" gradientUnits="userSpaceOnUse">
<stop stop-color="#E0E0E0"/>
<stop offset="0.31" stop-color="#FCCC63"/>
<stop offset="0.77" stop-color="#F55F44"/>
</linearGradient>
<linearGradient id="paint2_linear" x1="3839.12" y1="14908.5" x2="3839.12" y2="16397.5" gradientUnits="userSpaceOnUse">
<stop stop-color="#E0E0E0"/>
<stop offset="0.31" stop-color="#FCCC63"/>
<stop offset="0.77" stop-color="#F55F44"/>
</linearGradient>
<linearGradient id="paint3_linear" x1="4268.02" y1="14908.5" x2="4268.02" y2="16397.5" gradientUnits="userSpaceOnUse">
<stop stop-color="#E0E0E0"/>
<stop offset="0.31" stop-color="#FCCC63"/>
<stop offset="0.77" stop-color="#F55F44"/>
</linearGradient>
<linearGradient id="paint4_linear" x1="4960.3" y1="14908.5" x2="4960.3" y2="16397.5" gradientUnits="userSpaceOnUse">
<stop stop-color="#E0E0E0"/>
<stop offset="0.31" stop-color="#FCCC63"/>
<stop offset="0.77" stop-color="#F55F44"/>
</linearGradient>
<linearGradient id="paint5_linear" x1="135299" y1="59579.6" x2="135299" y2="46268.6" gradientUnits="userSpaceOnUse">
<stop stop-color="#808080" stop-opacity="0.25"/>
<stop offset="0.54" stop-color="#808080" stop-opacity="0.12"/>
<stop offset="1" stop-color="#808080" stop-opacity="0.1"/>
</linearGradient>
<linearGradient id="paint6_linear" x1="103.462" y1="223.306" x2="103.462" y2="278.607" gradientUnits="userSpaceOnUse">
<stop stop-color="#F2F2F2"/>
<stop offset="0.31" stop-color="#E6E6E6"/>
<stop offset="0.77" stop-color="#CCCCCC"/>
</linearGradient>
<linearGradient id="paint7_linear" x1="16553.5" y1="36983.1" x2="16553.5" y2="46641.7" gradientUnits="userSpaceOnUse">
<stop stop-color="#F2F2F2"/>
<stop offset="0.31" stop-color="#E6E6E6"/>
<stop offset="0.77" stop-color="#CCCCCC"/>
</linearGradient>
<linearGradient id="paint8_linear" x1="36288.4" y1="36983.1" x2="36288.4" y2="46641.7" gradientUnits="userSpaceOnUse">
<stop stop-color="#F2F2F2"/>
<stop offset="0.31" stop-color="#E6E6E6"/>
<stop offset="0.77" stop-color="#CCCCCC"/>
</linearGradient>
<linearGradient id="paint9_linear" x1="32936.1" y1="34564.7" x2="32936.1" y2="42619.9" gradientUnits="userSpaceOnUse">
<stop stop-color="#F2F2F2"/>
<stop offset="0.31" stop-color="#E6E6E6"/>
<stop offset="0.77" stop-color="#CCCCCC"/>
</linearGradient>
<linearGradient id="paint10_linear" x1="31913.3" y1="35275.4" x2="31913.3" y2="41877.7" gradientUnits="userSpaceOnUse">
<stop stop-color="#F2F2F2"/>
<stop offset="0.31" stop-color="#E6E6E6"/>
<stop offset="0.77" stop-color="#CCCCCC"/>
</linearGradient>
<linearGradient id="paint11_linear" x1="36925.4" y1="22921.4" x2="36925.4" y2="25313.7" gradientUnits="userSpaceOnUse">
<stop stop-color="#F2F2F2"/>
<stop offset="0.31" stop-color="#E6E6E6"/>
<stop offset="0.77" stop-color="#CCCCCC"/>
</linearGradient>
<linearGradient id="paint12_linear" x1="44573.1" y1="26555.9" x2="44573.1" y2="29907.1" gradientUnits="userSpaceOnUse">
<stop stop-color="#F2F2F2"/>
<stop offset="0.31" stop-color="#E6E6E6"/>
<stop offset="0.77" stop-color="#CCCCCC"/>
</linearGradient>
<linearGradient id="paint13_linear" x1="19864" y1="26571.3" x2="19864" y2="29924.3" gradientUnits="userSpaceOnUse">
<stop stop-color="#F2F2F2"/>
<stop offset="0.31" stop-color="#E6E6E6"/>
<stop offset="0.77" stop-color="#CCCCCC"/>
</linearGradient>
<linearGradient id="paint14_linear" x1="7466.21" y1="6480.02" x2="7466.21" y2="6208.96" gradientUnits="userSpaceOnUse">
<stop stop-color="#808080" stop-opacity="0.25"/>
<stop offset="0.54" stop-color="#808080" stop-opacity="0.12"/>
<stop offset="1" stop-color="#808080" stop-opacity="0.1"/>
</linearGradient>
<linearGradient id="paint15_linear" x1="6938.34" y1="5779.58" x2="6938.34" y2="6012.33" gradientUnits="userSpaceOnUse">
<stop stop-color="#F2F2F2"/>
<stop offset="0.31" stop-color="#E6E6E6"/>
<stop offset="0.77" stop-color="#CCCCCC"/>
</linearGradient>
<linearGradient id="paint16_linear" x1="8817.61" y1="8534.66" x2="8817.61" y2="8212.38" gradientUnits="userSpaceOnUse">
<stop stop-color="#808080" stop-opacity="0.25"/>
<stop offset="0.54" stop-color="#808080" stop-opacity="0.12"/>
<stop offset="1" stop-color="#808080" stop-opacity="0.1"/>
</linearGradient>
<linearGradient id="paint17_linear" x1="292.738" y1="273.353" x2="292.738" y2="283.862" gradientUnits="userSpaceOnUse">
<stop stop-color="#F2F2F2"/>
<stop offset="0.31" stop-color="#E0E0E0"/>
<stop offset="0.77" stop-color="#B3B3B3"/>
</linearGradient>
<linearGradient id="paint18_linear" x1="1850.1" y1="8327.16" x2="1850.1" y2="7937.9" gradientUnits="userSpaceOnUse">
<stop stop-color="#808080" stop-opacity="0.25"/>
<stop offset="0.54" stop-color="#808080" stop-opacity="0.12"/>
<stop offset="1" stop-color="#808080" stop-opacity="0.1"/>
</linearGradient>
<linearGradient id="paint19_linear" x1="1769.43" y1="7600.43" x2="1769.43" y2="7955.58" gradientUnits="userSpaceOnUse">
<stop stop-color="#F2F2F2"/>
<stop offset="0.31" stop-color="#E6E6E6"/>
<stop offset="0.77" stop-color="#CCCCCC"/>
</linearGradient>
<linearGradient id="paint20_linear" x1="28667.8" y1="5096.1" x2="28667.8" y2="2166.69" gradientUnits="userSpaceOnUse">
<stop stop-color="#808080" stop-opacity="0.25"/>
<stop offset="0.54" stop-color="#808080" stop-opacity="0.12"/>
<stop offset="1" stop-color="#808080" stop-opacity="0.1"/>
</linearGradient>
<linearGradient id="paint21_linear" x1="8390.45" y1="7822.41" x2="8390.45" y2="8113.3" gradientUnits="userSpaceOnUse">
<stop stop-color="#F2F2F2"/>
<stop offset="0.31" stop-color="#E6E6E6"/>
<stop offset="0.77" stop-color="#CCCCCC"/>
</linearGradient>
<linearGradient id="paint22_linear" x1="6280.36" y1="7226.97" x2="6280.36" y2="6562.34" gradientUnits="userSpaceOnUse">
<stop stop-color="#808080" stop-opacity="0.25"/>
<stop offset="0.54" stop-color="#808080" stop-opacity="0.12"/>
<stop offset="1" stop-color="#808080" stop-opacity="0.1"/>
</linearGradient>
<clipPath id="clip0">
<rect width="351" height="292.373" fill="white" transform="translate(0 0.626892)"/>
</clipPath>
</defs>
</svg>
