<svg width="237" height="58" viewBox="0 0 237 58" fill="none" xmlns="http://www.w3.org/2000/svg">
<path d="M0.576401 6.6986H6.73941L10.3308 26.03C10.8924 29.3406 11.3949 32.4739 11.8383 35.4298H12.0599C12.9467 30.523 13.5232 27.3897 13.7891 26.03L17.9127 6.6986H23.8096L27.9774 26.03C28.1843 27.0055 28.4947 28.6903 28.9085 31.0846C29.3519 33.4493 29.6179 34.8976 29.7065 35.4298H29.9283C30.076 34.5135 30.3273 32.9468 30.6821 30.7299C31.0663 28.513 31.3323 26.9463 31.4801 26.03L35.0272 6.6986H41.1902L33.298 41.7701H26.6029L22.6124 22.7047C21.5779 17.1772 21.0311 14.2065 20.972 13.7928H20.7946C20.7946 13.8814 20.2478 16.8521 19.1541 22.7047L15.1636 41.7701H8.51294L0.576401 6.6986ZM52.7359 29.0007C52.7359 31.9566 53.3418 34.1587 54.5537 35.6071C55.7657 37.0554 57.1845 37.7797 58.8102 37.7797C60.4063 37.7797 61.8104 37.0554 63.0223 35.6071C64.2342 34.1587 64.8401 31.9566 64.8401 29.0007C64.8401 25.9857 64.2342 23.7688 63.0223 22.35C61.8104 20.9016 60.4063 20.1774 58.8102 20.1774C57.214 20.1774 55.7952 20.9016 54.5537 22.35C53.3418 23.7688 52.7359 25.9857 52.7359 29.0007ZM46.9719 29.0007C46.9719 25.1876 47.9769 21.9657 49.9868 19.335C51.9969 16.7042 54.938 15.3889 58.8102 15.3889C62.6528 15.3889 65.5792 16.7042 67.5891 19.335C69.5991 21.9657 70.6041 25.1876 70.6041 29.0007C70.6041 30.1831 70.4859 31.3654 70.2494 32.5478C70.0425 33.7301 69.6582 34.9421 69.0967 36.1835C68.535 37.3954 67.8256 38.4743 66.9684 39.4202C66.1112 40.3365 64.9731 41.0903 63.5543 41.6814C62.1651 42.2726 60.5837 42.5682 58.8102 42.5682C57.0662 42.5682 55.4848 42.2874 54.066 41.7258C52.6768 41.1346 51.5387 40.3956 50.6519 39.5089C49.7947 38.5926 49.0705 37.5284 48.4794 36.3165C47.9178 35.0751 47.5187 33.8631 47.2822 32.6807C47.0753 31.4689 46.9719 30.2422 46.9719 29.0007ZM79.7555 41.7701V16.187H85.1648V18.9359C85.7264 17.99 86.5245 17.1624 87.5591 16.453C88.6232 15.7436 89.8794 15.3889 91.3276 15.3889C92.6879 15.3889 93.7957 15.5811 94.6529 15.9653V21.0642C93.5296 20.7094 92.4218 20.5321 91.3276 20.5321C89.4065 20.5321 87.9286 21.2859 86.894 22.7934C85.889 24.2713 85.3865 26.2518 85.3865 28.7346V41.7701H79.7555ZM102.43 41.7701V5.54581H108.017V26.3847L117.106 16.187H124.156L114.712 26.6065L124.732 41.7701H118.17L111.076 30.5526L108.017 33.9222V41.7701H102.43ZM129.272 11.7088V6.6986H155.343V11.7088H145.234V41.7701H139.381V11.7088H129.272ZM161.303 41.7701V16.187H166.712V18.9359C167.273 17.99 168.071 17.1624 169.105 16.453C170.17 15.7436 171.426 15.3889 172.875 15.3889C174.234 15.3889 175.343 15.5811 176.2 15.9653V21.0642C175.077 20.7094 173.968 20.5321 172.875 20.5321C170.953 20.5321 169.475 21.2859 168.441 22.7934C167.436 24.2713 166.933 26.2518 166.933 28.7346V41.7701H161.303ZM187.612 34.5873C187.612 35.5332 187.982 36.3313 188.721 36.9816C189.489 37.6024 190.494 37.9127 191.736 37.9127C193.509 37.9127 195.017 37.3215 196.259 36.1391C197.53 34.9568 198.165 33.405 198.165 31.4837V29.1337C196.805 29.4589 195.165 29.7693 193.243 30.0648C189.489 30.656 187.612 32.1635 187.612 34.5873ZM181.937 35.0751C181.937 30.257 185.514 27.3158 192.667 26.2518C195.268 25.8675 197.101 25.5128 198.165 25.1876V23.8131C198.165 22.5716 197.722 21.5962 196.835 20.8869C195.948 20.1774 194.766 19.8227 193.288 19.8227C190.48 19.8227 188.056 20.9755 186.017 23.2811L182.603 20.3547C183.933 18.7882 185.514 17.5762 187.346 16.719C189.209 15.8322 191.16 15.3889 193.2 15.3889C197.012 15.3889 199.732 16.32 201.357 18.1822C202.983 20.0149 203.796 22.5865 203.796 25.897V41.7701H198.343V38.5778C197.811 39.6714 196.879 40.6173 195.55 41.4154C194.248 42.1839 192.712 42.5682 190.938 42.5682C188.13 42.5682 185.928 41.8735 184.332 40.4843C182.735 39.095 181.937 37.292 181.937 35.0751ZM214.411 41.7701V5.54581H219.997V26.3847L229.086 16.187H236.136L226.692 26.6065L236.713 41.7701H230.151L223.057 30.5526L219.997 33.9222V41.7701H214.411Z" fill="#0F0F3F"/>
<path d="M59.023 42.6782C67.047 42.6782 73.5517 36.1734 73.5517 28.1494C73.5517 20.1254 67.047 13.6207 59.023 13.6207C50.999 13.6207 44.4942 20.1254 44.4942 28.1494C44.4942 36.1734 50.999 42.6782 59.023 42.6782Z" fill="#69F0AE"/>
</svg>
