<svg width="25" height="24" viewBox="0 0 25 24" fill="none" xmlns="http://www.w3.org/2000/svg">
<path d="M19.6401 12.936C19.6761 12.636 19.7001 12.324 19.7001 12C19.7001 11.676 19.6761 11.364 19.6281 11.064L21.6561 9.48002C21.8361 9.33602 21.8841 9.07202 21.7761 8.86802L19.8561 5.54402C19.7361 5.32802 19.4841 5.25602 19.2681 5.32802L16.8801 6.28802C16.3761 5.90402 15.8481 5.59202 15.2601 5.35202L14.9001 2.80802C14.8641 2.56802 14.6601 2.40002 14.4201 2.40002H10.5801C10.3401 2.40002 10.1481 2.56802 10.1121 2.80802L9.75211 5.35202C9.16411 5.59202 8.62411 5.91602 8.13211 6.28802L5.74411 5.32802C5.52811 5.24402 5.27611 5.32802 5.15611 5.54402L3.23611 8.86802C3.11611 9.08402 3.16411 9.33602 3.35611 9.48002L5.38411 11.064C5.33611 11.364 5.30011 11.688 5.30011 12C5.30011 12.312 5.32411 12.636 5.37211 12.936L3.34411 14.52C3.16411 14.664 3.11611 14.928 3.22411 15.132L5.14411 18.456C5.26411 18.672 5.51611 18.744 5.73211 18.672L8.12011 17.712C8.62411 18.096 9.15211 18.408 9.74011 18.648L10.1001 21.192C10.1481 21.432 10.3401 21.6 10.5801 21.6H14.4201C14.6601 21.6 14.8641 21.432 14.8881 21.192L15.2481 18.648C15.8361 18.408 16.3761 18.084 16.8681 17.712L19.2561 18.672C19.4721 18.756 19.7241 18.672 19.8441 18.456L21.7641 15.132C21.8841 14.916 21.8361 14.664 21.6441 14.52L19.6401 12.936V12.936ZM12.5001 15.6C10.5201 15.6 8.90011 13.98 8.90011 12C8.90011 10.02 10.5201 8.40002 12.5001 8.40002C14.4801 8.40002 16.1001 10.02 16.1001 12C16.1001 13.98 14.4801 15.6 12.5001 15.6Z" fill="#69F0AE"/>
</svg>
