<svg width="20" height="20" viewBox="0 0 20 20" fill="none" xmlns="http://www.w3.org/2000/svg">
<path d="M13.3333 9.16667C14.7166 9.16667 15.8249 8.05001 15.8249 6.66667C15.8249 5.28334 14.7166 4.16667 13.3333 4.16667C11.9499 4.16667 10.8333 5.28334 10.8333 6.66667C10.8333 8.05001 11.9499 9.16667 13.3333 9.16667ZM6.66658 9.16667C8.04992 9.16667 9.15825 8.05001 9.15825 6.66667C9.15825 5.28334 8.04992 4.16667 6.66658 4.16667C5.28325 4.16667 4.16658 5.28334 4.16658 6.66667C4.16658 8.05001 5.28325 9.16667 6.66658 9.16667ZM6.66658 10.8333C4.72492 10.8333 0.833252 11.8083 0.833252 13.75V15.8333H12.4999V13.75C12.4999 11.8083 8.60825 10.8333 6.66658 10.8333ZM13.3333 10.8333C13.0916 10.8333 12.8166 10.85 12.5249 10.875C13.4916 11.575 14.1666 12.5167 14.1666 13.75V15.8333H19.1666V13.75C19.1666 11.8083 15.2749 10.8333 13.3333 10.8333Z" fill="#F55F44"/>
</svg>
