<svg width="113" height="28" viewBox="0 0 113 28" fill="none" xmlns="http://www.w3.org/2000/svg">
<path d="M0.274902 3.19387H3.21338L4.92576 12.411C5.19349 13.9894 5.43309 15.4834 5.6445 16.8927H5.75018C6.173 14.5532 6.44783 13.0593 6.57465 12.411L8.54072 3.19387H11.3523L13.3395 12.411C13.4382 12.876 13.5861 13.6794 13.7834 14.8209C13.9948 15.9484 14.1217 16.639 14.164 16.8927H14.2697C14.3401 16.4558 14.4599 15.7088 14.6291 14.6518C14.8123 13.5948 14.9391 12.8479 15.0096 12.411L16.7008 3.19387H19.6393L15.8763 19.9157H12.6842L10.7815 10.8255C10.2883 8.19 10.0276 6.77361 9.99937 6.57631H9.91481C9.91481 6.61857 9.65409 8.03497 9.13265 10.8255L7.23 19.9157H4.05899L0.274902 3.19387ZM25.1442 13.8274C25.1442 15.2367 25.4331 16.2866 26.0109 16.9772C26.5888 17.6678 27.2652 18.0131 28.0404 18.0131C28.8014 18.0131 29.4709 17.6678 30.0487 16.9772C30.6265 16.2866 30.9154 15.2367 30.9154 13.8274C30.9154 12.3898 30.6265 11.3328 30.0487 10.6563C29.4709 9.96575 28.8014 9.62047 28.0404 9.62047C27.2793 9.62047 26.6028 9.96575 26.0109 10.6563C25.4331 11.3328 25.1442 12.3898 25.1442 13.8274ZM22.3959 13.8274C22.3959 12.0093 22.8751 10.4731 23.8335 9.21882C24.7918 7.96448 26.1941 7.33735 28.0404 7.33735C29.8725 7.33735 31.2678 7.96448 32.2261 9.21882C33.1845 10.4731 33.6636 12.0093 33.6636 13.8274C33.6636 14.3911 33.6073 14.9549 33.4945 15.5186C33.3959 16.0823 33.2126 16.6602 32.9449 17.2521C32.6771 17.8299 32.3389 18.3443 31.9302 18.7953C31.5215 19.2322 30.9788 19.5916 30.3023 19.8734C29.64 20.1553 28.886 20.2962 28.0404 20.2962C27.2089 20.2962 26.4549 20.1624 25.7784 19.8946C25.116 19.6127 24.5734 19.2604 24.1506 18.8376C23.7419 18.4007 23.3966 17.8933 23.1147 17.3155C22.8469 16.7236 22.6567 16.1457 22.5439 15.582C22.4453 15.0042 22.3959 14.4193 22.3959 13.8274ZM38.027 19.9157V7.71787H40.6061V9.02854C40.8739 8.57754 41.2544 8.18295 41.7476 7.84468C42.255 7.50646 42.854 7.33735 43.5445 7.33735C44.193 7.33735 44.7212 7.42897 45.1299 7.61215V10.0433C44.5944 9.87414 44.0662 9.78958 43.5445 9.78958C42.6285 9.78958 41.9238 10.149 41.4306 10.8678C40.9514 11.5724 40.7118 12.5167 40.7118 13.7005V19.9157H38.027ZM48.8382 19.9157V2.64423H51.5017V12.5801L55.8355 7.71787H59.1969L54.6938 12.6858L59.4714 19.9157H56.3429L52.9603 14.5673L51.5017 16.1739V19.9157H48.8382ZM61.6362 5.58269V3.19387H74.0666V5.58269H69.2466V19.9157H66.4562V5.58269H61.6362ZM76.9081 19.9157V7.71787H79.4871V9.02854C79.7547 8.57754 80.1353 8.18295 80.6284 7.84468C81.1358 7.50646 81.735 7.33735 82.4256 7.33735C83.0737 7.33735 83.6023 7.42897 84.011 7.61215V10.0433C83.4755 9.87414 82.9468 9.78958 82.4256 9.78958C81.5094 9.78958 80.8046 10.149 80.3115 10.8678C79.8322 11.5724 79.5928 12.5167 79.5928 13.7005V19.9157H76.9081ZM89.4524 16.491C89.4524 16.942 89.6286 17.3225 89.981 17.6326C90.3473 17.9286 90.8265 18.0765 91.4184 18.0765C92.2639 18.0765 92.9831 17.7947 93.5749 17.2309C94.181 16.6672 94.4837 15.9273 94.4837 15.0112V13.8908C93.8355 14.0458 93.0532 14.1938 92.1371 14.3347C90.3473 14.6166 89.4524 15.3354 89.4524 16.491ZM86.7464 16.7236C86.7464 14.4263 88.4518 13.024 91.8626 12.5167C93.1026 12.3335 93.9767 12.1644 94.4837 12.0093V11.354C94.4837 10.762 94.2724 10.297 93.8498 9.95874C93.4268 9.62047 92.8631 9.45136 92.1583 9.45136C90.8196 9.45136 89.6641 10.001 88.6917 11.1003L87.0638 9.70503C87.698 8.9581 88.4518 8.38024 89.3255 7.97154C90.2135 7.54872 91.1439 7.33735 92.1163 7.33735C93.9343 7.33735 95.2309 7.7813 96.0059 8.66915C96.7809 9.54297 97.1688 10.7691 97.1688 12.3475V19.9157H94.5685V18.3936C94.3148 18.9151 93.8706 19.3661 93.2368 19.7466C92.6164 20.113 91.8838 20.2962 91.0378 20.2962C89.6991 20.2962 88.6492 19.965 87.8881 19.3027C87.127 18.6403 86.7464 17.7806 86.7464 16.7236ZM102.23 19.9157V2.64423H104.893V12.5801L109.227 7.71787H112.588L108.085 12.6858L112.863 19.9157H109.734L106.352 14.5673L104.893 16.1739V19.9157H102.23Z" fill="white"/>
<path d="M28.1418 20.3487C31.9676 20.3487 35.069 17.2473 35.069 13.4215C35.069 9.59568 31.9676 6.49426 28.1418 6.49426C24.316 6.49426 21.2146 9.59568 21.2146 13.4215C21.2146 17.2473 24.316 20.3487 28.1418 20.3487Z" fill="#69F0AE"/>
</svg>
